<svg xmlns="http://www.w3.org/2000/svg" fill="none" viewBox="0 0 200 200" width="400" height="400" class="coolshapes moon-9 "><g clip-path="url(#cs_clip_1_moon-9)"><mask id="cs_mask_1_moon-9" style="mask-type:alpha" width="201" height="200" x="-1" y="0" maskUnits="userSpaceOnUse"><path fill="#fff" d="M100 200a100.001 100.001 0 000-200v200zM0 200a100.002 100.002 0 00100-100A100 100 0 000 0v200z"></path></mask><g mask="url(#cs_mask_1_moon-9)"><path fill="#fff" d="M200 0H0v200h200V0z"></path><path fill="url(#paint0_linear_748_4479)" d="M200 0H0v200h200V0z"></path><g filter="url(#filter0_f_748_4479)"><path fill="#FFE500" d="M180-41H-11v141h191V-41z"></path><path fill="#18A0FB" d="M256 63H113v157h143V63z"></path></g></g></g><defs><filter id="filter0_f_748_4479" width="407" height="401" x="-81" y="-111" color-interpolation-filters="sRGB" filterUnits="userSpaceOnUse"><feFlood flood-opacity="0" result="BackgroundImageFix"></feFlood><feBlend in="SourceGraphic" in2="BackgroundImageFix" result="shape"></feBlend><feGaussianBlur result="effect1_foregroundBlur_748_4479" stdDeviation="35"></feGaussianBlur></filter><linearGradient id="paint0_linear_748_4479" x1="158.5" x2="29" y1="12.5" y2="200" gradientUnits="userSpaceOnUse"><stop stop-color="#0E6FFF"></stop><stop offset="1" stop-color="#00F0FF"></stop></linearGradient><clipPath id="cs_clip_1_moon-9"><path fill="#fff" d="M0 0H200V200H0z"></path></clipPath></defs><g style="mix-blend-mode:overlay" mask="url(#cs_mask_1_moon-9)"><path fill="gray" stroke="transparent" d="M200 0H0v200h200V0z" filter="url(#cs_noise_1_moon-9)"></path></g><defs><filter id="cs_noise_1_moon-9" width="100%" height="100%" x="0%" y="0%" filterUnits="objectBoundingBox"><feTurbulence baseFrequency="0.6" numOctaves="5" result="out1" seed="4"></feTurbulence><feComposite in="out1" in2="SourceGraphic" operator="in" result="out2"></feComposite><feBlend in="SourceGraphic" in2="out2" mode="overlay" result="out3"></feBlend></filter></defs></svg>