<svg xmlns="http://www.w3.org/2000/svg" fill="none" viewBox="0 0 200 200" width="400" height="400" class="coolshapes number-4 "><g clip-path="url(#cs_clip_1_number-4)"><mask id="cs_mask_1_number-4" style="mask-type:alpha" width="180" height="200" x="10" y="0" maskUnits="userSpaceOnUse"><path fill="#fff" d="M100 160H10V90l90-90h90v200h-90v-40z"></path></mask><g mask="url(#cs_mask_1_number-4)"><path fill="#fff" d="M200 0H0v200h200V0z"></path><path fill="#FFF500" fill-opacity="0.54" d="M200 0H0v200h200V0z"></path><g filter="url(#filter0_f_880_3334)"><ellipse cx="89.5" cy="30.5" fill="#FF00D6" rx="65.5" ry="51.5"></ellipse><ellipse cx="26.5" cy="149.5" fill="#07FFE1" rx="73.5" ry="85.5"></ellipse><path fill="#06F" d="M211 119H93v132h118V119z"></path></g></g></g><defs><filter id="filter0_f_880_3334" width="418" height="432" x="-127" y="-101" color-interpolation-filters="sRGB" filterUnits="userSpaceOnUse"><feFlood flood-opacity="0" result="BackgroundImageFix"></feFlood><feBlend in="SourceGraphic" in2="BackgroundImageFix" result="shape"></feBlend><feGaussianBlur result="effect1_foregroundBlur_880_3334" stdDeviation="40"></feGaussianBlur></filter><clipPath id="cs_clip_1_number-4"><path fill="#fff" d="M0 0H200V200H0z"></path></clipPath></defs><g style="mix-blend-mode:overlay" mask="url(#cs_mask_1_number-4)"><path fill="gray" stroke="transparent" d="M200 0H0v200h200V0z" filter="url(#cs_noise_1_number-4)"></path></g><defs><filter id="cs_noise_1_number-4" width="100%" height="100%" x="0%" y="0%" filterUnits="objectBoundingBox"><feTurbulence baseFrequency="0.6" numOctaves="5" result="out1" seed="4"></feTurbulence><feComposite in="out1" in2="SourceGraphic" operator="in" result="out2"></feComposite><feBlend in="SourceGraphic" in2="out2" mode="overlay" result="out3"></feBlend></filter></defs></svg>