<svg xmlns="http://www.w3.org/2000/svg" fill="none" viewBox="0 0 200 200" width="400" height="400" class="coolshapes number-1 "><g clip-path="url(#cs_clip_1_number-1)"><mask id="cs_mask_1_number-1" style="mask-type:alpha" width="180" height="200" x="10" y="0" maskUnits="userSpaceOnUse"><path fill="#fff" d="M10 90h90v110h90V0h-90L10 90z"></path></mask><g mask="url(#cs_mask_1_number-1)"><path fill="#fff" d="M200 0H0v200h200V0z"></path><path fill="#FFF500" fill-opacity="0.44" d="M200 0H0v200h200V0z"></path><g filter="url(#filter0_f_880_3301)"><ellipse cx="106" cy="22.5" fill="#FF00D6" rx="88" ry="49.5"></ellipse><ellipse cx="64.5" cy="155" fill="#07FFE1" rx="64.5" ry="45"></ellipse><path fill="#06F" d="M218 126H100v120h118V126z"></path></g></g></g><defs><filter id="filter0_f_880_3301" width="378" height="433" x="-80" y="-107" color-interpolation-filters="sRGB" filterUnits="userSpaceOnUse"><feFlood flood-opacity="0" result="BackgroundImageFix"></feFlood><feBlend in="SourceGraphic" in2="BackgroundImageFix" result="shape"></feBlend><feGaussianBlur result="effect1_foregroundBlur_880_3301" stdDeviation="40"></feGaussianBlur></filter><clipPath id="cs_clip_1_number-1"><path fill="#fff" d="M0 0H200V200H0z"></path></clipPath></defs><g style="mix-blend-mode:overlay" mask="url(#cs_mask_1_number-1)"><path fill="gray" stroke="transparent" d="M200 0H0v200h200V0z" filter="url(#cs_noise_1_number-1)"></path></g><defs><filter id="cs_noise_1_number-1" width="100%" height="100%" x="0%" y="0%" filterUnits="objectBoundingBox"><feTurbulence baseFrequency="0.6" numOctaves="5" result="out1" seed="4"></feTurbulence><feComposite in="out1" in2="SourceGraphic" operator="in" result="out2"></feComposite><feBlend in="SourceGraphic" in2="out2" mode="overlay" result="out3"></feBlend></filter></defs></svg>