<svg xmlns="http://www.w3.org/2000/svg" fill="none" viewBox="0 0 200 200" width="400" height="400" class="coolshapes polygon-6 "><mask id="cs_mask_1_polygon-6" style="mask-type:alpha" width="200" height="190" x="0" y="5" maskUnits="userSpaceOnUse"><path fill="#fff" d="M100 5l100 72.573L161.803 195H38.197L0 77.573 100 5z"></path></mask><g mask="url(#cs_mask_1_polygon-6)"><path fill="#fff" d="M200 0H0v200h200V0z"></path><path fill="url(#paint0_linear_748_4364)" fill-opacity="0.55" d="M200 0H0v200h200V0z"></path><g filter="url(#filter0_f_748_4364)"><path fill="#00F0FF" d="M158 113H11v90h147v-90z"></path><path fill="#18A0FB" d="M123 72H-20v108h143V72z"></path><ellipse cx="62.382" cy="69.794" fill="#FFD749" rx="60.387" ry="39.91" transform="rotate(-33.875 62.382 69.794)"></ellipse></g></g><defs><filter id="filter0_f_748_4364" width="298" height="300.438" x="-80" y="-37.438" color-interpolation-filters="sRGB" filterUnits="userSpaceOnUse"><feFlood flood-opacity="0" result="BackgroundImageFix"></feFlood><feBlend in="SourceGraphic" in2="BackgroundImageFix" result="shape"></feBlend><feGaussianBlur result="effect1_foregroundBlur_748_4364" stdDeviation="30"></feGaussianBlur></filter><linearGradient id="paint0_linear_748_4364" x1="200" x2="0" y1="0" y2="200" gradientUnits="userSpaceOnUse"><stop stop-color="#FF1F00"></stop><stop offset="1" stop-color="#FFD600"></stop></linearGradient></defs><g style="mix-blend-mode:overlay" mask="url(#cs_mask_1_polygon-6)"><path fill="gray" stroke="transparent" d="M200 0H0v200h200V0z" filter="url(#cs_noise_1_polygon-6)"></path></g><defs><filter id="cs_noise_1_polygon-6" width="100%" height="100%" x="0%" y="0%" filterUnits="objectBoundingBox"><feTurbulence baseFrequency="0.6" numOctaves="5" result="out1" seed="4"></feTurbulence><feComposite in="out1" in2="SourceGraphic" operator="in" result="out2"></feComposite><feBlend in="SourceGraphic" in2="out2" mode="overlay" result="out3"></feBlend></filter></defs></svg>