<svg xmlns="http://www.w3.org/2000/svg" fill="none" viewBox="0 0 200 200" width="400" height="400" class="coolshapes triangle-12 "><g clip-path="url(#cs_clip_1_triangle-12)"><mask id="cs_mask_1_triangle-12" style="mask-type:alpha" width="200" height="200" x="0" y="0" maskUnits="userSpaceOnUse"><path fill="#fff" d="M0 0l66.445 200H0V0zM66.777 0l66.446 200H66.777V0zM200 200L133.555 0v200H200z"></path></mask><g mask="url(#cs_mask_1_triangle-12)"><path fill="#fff" d="M200 0H0v200h200V0z"></path><path fill="#06F" d="M200 0H0v200h200V0z"></path><g filter="url(#filter0_f_748_4884)"><path fill="#FFE500" d="M162 76H-7v150h169V76z"></path><ellipse cx="108.777" cy="175.536" fill="#FF58E4" rx="91.994" ry="58.126" transform="rotate(-33.875 108.777 175.536)"></ellipse></g></g></g><defs><filter id="filter0_f_748_4884" width="358.765" height="329.95" x="-87" y="-4" color-interpolation-filters="sRGB" filterUnits="userSpaceOnUse"><feFlood flood-opacity="0" result="BackgroundImageFix"></feFlood><feBlend in="SourceGraphic" in2="BackgroundImageFix" result="shape"></feBlend><feGaussianBlur result="effect1_foregroundBlur_748_4884" stdDeviation="40"></feGaussianBlur></filter><clipPath id="cs_clip_1_triangle-12"><path fill="#fff" d="M0 0H200V200H0z"></path></clipPath></defs><g style="mix-blend-mode:overlay" mask="url(#cs_mask_1_triangle-12)"><path fill="gray" stroke="transparent" d="M200 0H0v200h200V0z" filter="url(#cs_noise_1_triangle-12)"></path></g><defs><filter id="cs_noise_1_triangle-12" width="100%" height="100%" x="0%" y="0%" filterUnits="objectBoundingBox"><feTurbulence baseFrequency="0.6" numOctaves="5" result="out1" seed="4"></feTurbulence><feComposite in="out1" in2="SourceGraphic" operator="in" result="out2"></feComposite><feBlend in="SourceGraphic" in2="out2" mode="overlay" result="out3"></feBlend></filter></defs></svg>